ply
format ascii 1.0
comment Created by Blender 2.67 (sub 0) - www.blender.org, source file: 'solar power station.blend'
element vertex 96
property float x
property float y
property float z
property float nx
property float ny
property float nz
element face 92
property list uchar uint vertex_indices
end_header
1.370436 6.889700 0.000000 -0.000000 0.000000 1.000000
0.000000 7.024675 0.000000 -0.000000 0.000000 1.000000
-1.370446 6.889698 0.000000 -0.000000 0.000000 1.000000
2.688217 6.489958 0.000000 -0.000000 0.000000 1.000000
-2.688227 6.489954 0.000000 0.000000 0.000000 1.000000
3.902693 5.840809 0.000000 0.000000 0.000000 1.000000
-3.902701 5.840804 0.000000 0.000000 -0.000000 1.000000
4.967189 4.967202 0.000000 0.000000 0.000000 1.000000
-4.967196 4.967196 0.000000 0.000000 -0.000000 1.000000
5.840799 3.902708 0.000000 0.000000 0.000000 1.000000
-5.840805 3.902700 0.000000 0.000000 -0.000000 1.000000
6.489951 2.688234 0.000000 0.000000 0.000000 1.000000
-6.489954 2.688227 0.000000 0.000000 -0.000000 1.000000
6.889697 1.370453 0.000000 0.000000 0.000000 1.000000
-6.889698 1.370446 0.000000 0.000000 -0.000000 1.000000
7.024675 0.000007 0.000000 0.000000 0.000000 1.000000
-7.024675 0.000001 0.000000 0.000000 -0.000000 1.000000
6.889699 -1.370440 0.000000 0.000000 0.000000 1.000000
-6.889699 -1.370445 0.000000 0.000000 0.000000 1.000000
6.489956 -2.688222 0.000000 0.000000 0.000000 1.000000
-6.489954 -2.688226 0.000000 0.000000 0.000000 1.000000
5.840807 -3.902696 0.000000 0.000000 0.000000 1.000000
-5.840805 -3.902700 0.000000 0.000000 0.000000 1.000000
4.967199 -4.967193 0.000000 0.000000 0.000000 1.000000
-4.967196 -4.967196 0.000000 0.000000 0.000000 1.000000
3.902704 -5.840802 0.000000 0.000000 0.000000 1.000000
-3.902700 -5.840805 0.000000 0.000000 0.000000 1.000000
2.688230 -6.489953 0.000000 0.000000 0.000000 1.000000
-2.688226 -6.489954 0.000000 0.000000 0.000000 1.000000
1.370449 -6.889698 0.000000 0.000000 0.000000 1.000000
-1.370445 -6.889699 0.000000 0.000000 0.000000 1.000000
0.000002 -7.024675 0.000000 0.000000 0.000000 1.000000
-6.179231 31.065094 0.000000 -0.000000 0.000000 -1.000000
0.000002 31.673691 0.000000 -0.000000 0.000000 -1.000000
6.179187 31.065100 0.000000 -0.000000 0.000000 -1.000000
12.120959 29.262690 0.000000 -0.000000 0.000000 -1.000000
-12.121002 29.262672 0.000000 -0.000000 0.000000 -1.000000
17.596931 26.335739 0.000000 -0.000000 0.000000 -1.000000
-17.596968 26.335712 0.000000 0.000000 0.000000 -1.000000
22.396664 22.396706 0.000000 0.000000 0.000000 -1.000000
-22.396688 22.396679 0.000000 0.000000 -0.000000 -1.000000
26.335707 17.596992 0.000000 0.000000 0.000000 -1.000000
-26.335718 17.596954 0.000000 0.000000 -0.000000 -1.000000
29.262680 12.121025 0.000000 0.000000 0.000000 -1.000000
-29.262684 12.120991 0.000000 0.000000 -0.000000 -1.000000
31.065100 6.179258 0.000000 0.000000 0.000000 -1.000000
-31.065098 6.179225 0.000000 0.000000 -0.000000 -1.000000
31.673708 0.000022 0.000000 0.000000 0.000000 -1.000000
-31.673700 -0.000006 0.000000 0.000000 -0.000000 -1.000000
31.065111 -6.179214 0.000000 0.000000 0.000000 -1.000000
-31.065100 -6.179237 0.000000 0.000000 0.000000 -1.000000
29.262699 -12.120988 0.000000 0.000000 0.000000 -1.000000
-29.262684 -12.121009 0.000000 0.000000 0.000000 -1.000000
26.335743 -17.596958 0.000000 0.000000 0.000000 -1.000000
-26.335718 -17.596977 0.000000 0.000000 0.000000 -1.000000
22.396706 -22.396690 0.000000 0.000000 0.000000 -1.000000
-22.396688 -22.396700 0.000000 0.000000 0.000000 -1.000000
17.596983 -26.335722 0.000000 0.000000 0.000000 -1.000000
-17.596964 -26.335733 0.000000 0.000000 0.000000 -1.000000
12.121017 -29.262690 0.000000 0.000000 0.000000 -1.000000
-12.120996 -29.262699 0.000000 0.000000 0.000000 -1.000000
6.179248 -31.065113 0.000000 0.000000 0.000000 -1.000000
-6.179224 -31.065113 0.000000 0.000000 0.000000 -1.000000
0.000012 -31.673710 0.000000 0.000000 0.000000 -1.000000
29.262699 -12.120988 0.000000 0.000000 0.000000 1.000000
31.065111 -6.179214 0.000000 0.000000 0.000000 1.000000
17.596983 -26.335722 0.000000 0.000000 0.000000 1.000000
22.396706 -22.396690 0.000000 0.000000 0.000000 1.000000
0.000012 -31.673710 0.000000 0.000000 -0.000000 1.000000
6.179248 -31.065113 0.000000 0.000000 -0.000000 1.000000
-17.596964 -26.335733 0.000000 0.000000 0.000000 1.000000
-12.120996 -29.262699 0.000000 0.000000 0.000000 1.000000
-29.262684 -12.121009 0.000000 0.000000 0.000000 1.000000
-26.335718 -17.596977 0.000000 0.000000 0.000000 1.000000
-31.065098 6.179225 0.000000 -0.000000 0.000000 1.000000
-31.673700 -0.000006 0.000000 -0.000000 0.000000 1.000000
-22.396688 22.396679 0.000000 0.000000 0.000000 1.000000
-26.335718 17.596954 0.000000 0.000000 0.000000 1.000000
-6.179231 31.065094 0.000000 0.000000 0.000000 1.000000
-12.121002 29.262672 0.000000 0.000000 0.000000 1.000000
12.120959 29.262690 0.000000 0.000000 0.000000 1.000000
6.179187 31.065100 0.000000 0.000000 0.000000 1.000000
26.335707 17.596992 0.000000 0.000000 0.000000 1.000000
22.396664 22.396706 0.000000 0.000000 0.000000 1.000000
31.673708 0.000022 0.000000 0.000000 0.000000 1.000000
31.065100 6.179258 0.000000 0.000000 0.000000 1.000000
26.335743 -17.596958 0.000000 0.000000 0.000000 1.000000
12.121017 -29.262690 0.000000 0.000000 0.000000 1.000000
-6.179224 -31.065113 0.000000 0.000000 -0.000000 1.000000
-22.396688 -22.396700 0.000000 0.000000 0.000000 1.000000
-31.065100 -6.179237 0.000000 0.000000 0.000000 1.000000
-29.262684 12.120991 0.000000 0.000000 0.000000 1.000000
-17.596968 26.335712 0.000000 0.000000 0.000000 1.000000
0.000002 31.673691 0.000000 0.000000 0.000000 1.000000
17.596931 26.335739 0.000000 0.000000 0.000000 1.000000
29.262680 12.121025 0.000000 0.000000 0.000000 1.000000
3 0 1 2
3 3 0 2
3 4 3 2
3 4 5 3
3 4 6 5
3 6 7 5
3 6 8 7
3 8 9 7
3 8 10 9
3 10 11 9
3 10 12 11
3 12 13 11
3 12 14 13
3 14 15 13
3 14 16 15
3 16 17 15
3 16 18 17
3 18 19 17
3 18 20 19
3 20 21 19
3 20 22 21
3 22 23 21
3 22 24 23
3 24 25 23
3 24 26 25
3 26 27 25
3 26 28 27
3 28 29 27
3 28 30 29
3 30 31 29
3 32 33 34
3 32 34 35
3 36 32 35
3 36 35 37
3 36 37 38
3 37 39 38
3 39 40 38
3 39 41 40
3 41 42 40
3 41 43 42
3 43 44 42
3 43 45 44
3 45 46 44
3 45 47 46
3 47 48 46
3 47 49 48
3 49 50 48
3 49 51 50
3 51 52 50
3 51 53 52
3 53 54 52
3 53 55 54
3 55 56 54
3 55 57 56
3 57 58 56
3 57 59 58
3 59 60 58
3 59 61 60
3 61 62 60
3 61 63 62
4 17 19 64 65
4 23 25 66 67
4 29 31 68 69
4 28 26 70 71
4 22 20 72 73
4 16 14 74 75
4 10 8 76 77
4 4 2 78 79
4 0 3 80 81
4 7 9 82 83
4 13 15 84 85
4 19 21 86 64
4 25 27 87 66
4 31 30 88 68
4 26 24 89 70
4 20 18 90 72
4 14 12 91 74
4 8 6 92 76
4 2 1 93 78
4 3 5 94 80
4 9 11 95 82
4 15 17 65 84
4 21 23 67 86
4 27 29 69 87
4 30 28 71 88
4 24 22 73 89
4 18 16 75 90
4 12 10 77 91
4 6 4 79 92
4 1 0 81 93
4 5 7 83 94
4 11 13 85 95
